# xmcd
#
# Track frame offsets: 
#        150
#        19957
#        31646
#        46219
#        62857
#        82378
#        97393
#        118099
#        134710
#        163227
#        178839
#        199482
#
# Disc length: 2762 seconds
#
# Revision: 1
# Processed by: cddbd v1.5.2PL0 Copyright (c) Steve Scherf et al.
# Submitted via: ExactAudioCopy v0.99pb4
#
DISCID=bc0ac80c
DTITLE=Carey and Lurrie Bell - Second Nature
DYEAR=2004
DGENRE=Blues
TTITLE0=Stop Running 'Round
TTITLE1=Trouble In My Way
TTITLE2=The Road Is So Long
TTITLE3=Wrapped Up In Love
TTITLE4=Rock Me
TTITLE5=Short Dress Woman
TTITLE6=Five Long Years
TTITLE7=Got To Leave Chi-Town
TTITLE8=Heartaches And Pain
TTITLE9=Key To The Highway
TTITLE10=Do You Hear?
TTITLE11=Here I Go Again
EXTD=YEAR: 2004
EXTT0=
EXTT1=
EXTT2=
EXTT3=
EXTT4=
EXTT5=
EXTT6=
EXTT7=
EXTT8=
EXTT9=
EXTT10=
EXTT11=
PLAYORDER=
